<svg xmlns="http://www.w3.org/2000/svg" viewBox="0 0 256 256">
  <title>Daffodil</title><circle cx="128" cy="128" r="120" fill="#CCAE55" data-fill="circle"/>
  <g stroke="#574933" data-stroke="outline" stroke-width="2.4" stroke-linecap="round" stroke-linejoin="round">
    <path d="M128 210V106" fill="none" stroke="#807047" data-stroke="accent" stroke-width="5"/>
    <path d="M126 210c-28-23-38-62-32-84 22 30 25 58 32 84Zm6 0c4-44 20-71 40-85-2 38-17 66-40 85Z" fill="#C8BA88" data-fill="secondary"/>
    <path d="M120 87c-18-16-16-35 7-53 23 17 27 33 14 51 20-19 41-14 55 7-16 23-34 26-51 12 23 14 27 36 12 58-25-6-37-21-29-43-3 27-25 35-48 27-2-26 9-43 33-42-26 4-44-7-48-32 24-13 44-8 55 15Z" fill="#E4D9B2" data-fill="main"/>
    <path d="M128 41v31m58 21-30 4m-6 54-14-28m-47 13 25-22M76 76l28 16" fill="none" opacity=".3"/>
    <path d="m111 84 34-1 3 28-19 14-22-12Z" fill="#C8BA88" data-fill="secondary"/>
    <path d="m110 85-6 11 5 8-4 12 13 1 10 10 11-9 13-4-4-11 4-10-12-4-9-9-10 6Z" fill="#E4D9B2" data-fill="main"/>
    <ellipse cx="128" cy="103" rx="13" ry="15" fill="#A39563" data-fill="shadow"/>
    <path d="M121 103c0-7 8-11 13-5" fill="none" stroke="#E5E1D0" data-stroke="highlight" stroke-width="3"/>
  </g>
</svg>
