<svg xmlns="http://www.w3.org/2000/svg" viewBox="0 0 256 256">
  <title>Straw hat</title><circle cx="128" cy="128" r="120" fill="#C7864F" data-fill="circle"/>
  <g transform="rotate(-12 128 128)" stroke="#5F4030" data-stroke="outline" stroke-width="2.4" stroke-linecap="round" stroke-linejoin="round">
    <ellipse cx="128" cy="155" rx="88" ry="37" fill="#CFA878" data-fill="secondary"/>
    <ellipse cx="128" cy="151" rx="81" ry="30" fill="#E2CCAE" data-fill="main"/>
    <path d="M150 126c34 14 25 38-4 52 28-3 58-15 63-26-1-13-22-23-59-26Z" fill="#B3865B" data-fill="shadow" stroke="none" opacity=".45"/>
    <path d="M84 135c1-47 10-65 44-65s43 18 44 65c-16 19-71 19-88 0Z" fill="#E2CCAE" data-fill="main"/>
    <path d="M145 72c15 13 14 44 8 75 8-2 15-6 19-12-1-39-7-57-27-63Z" fill="#B3865B" data-fill="shadow" stroke="none" opacity=".55"/>
    <path d="M85 119c26 13 61 13 85 0l2 17c-19 17-69 17-88-1Z" fill="#935E3E" data-fill="accent"/>
    <path d="M103 88c10-5 20-7 32-6m-37 17c13-6 29-7 44-4m-40 15c12-3 26-3 40-1" fill="none" stroke="#CFA878" data-stroke="secondary" stroke-width="2"/>
    <path d="M53 154c25 23 105 27 150-2m-138 15c27 13 66 17 105 6" fill="none" stroke="#B3865B" data-stroke="shadow" stroke-width="1.5"/>
    <path d="m160 138 21 34-17-3-7 8-12-35" fill="#935E3E" data-fill="accent"/>
  </g>
</svg>
